<?xml version="1.0" standalone="no"?>
<!DOCTYPE svg PUBLIC "-//W3C//DTD SVG 20010904//EN"
 "http://www.w3.org/TR/2001/REC-SVG-20010904/DTD/svg10.dtd">
<svg version="1.0" xmlns="http://www.w3.org/2000/svg"
 width="700.000000pt" height="700.000000pt" viewBox="0 0 700.000000 700.000000"
 preserveAspectRatio="xMidYMid meet">
<metadata>
Created by potrace 1.14, written by Peter Selinger 2001-2017
</metadata>
<g transform="translate(0.000000,700.000000) scale(0.100000,-0.100000)"
fill="#000000" stroke="none">
<path d="M0 3500 l0 -3500 3500 0 3500 0 0 3500 0 3500 -3500 0 -3500 0 0
-3500z m2925 1785 c203 -42 387 -198 468 -395 37 -90 46 -140 47 -250 0 -180
-62 -332 -190 -461 -84 -85 -166 -135 -280 -171 -106 -33 -274 -32 -376 1
-284 92 -467 337 -468 626 0 116 14 182 59 280 130 283 433 434 740 370z
m1017 -11 c375 -71 720 -315 922 -652 82 -136 150 -327 176 -496 16 -103 14
-329 -5 -437 -92 -536 -505 -979 -1027 -1104 -81 -19 -264 -45 -319 -45 -5 0
-9 576 -9 1381 l0 1382 91 -7 c51 -4 127 -14 171 -22z m-1000 -1433 c127 -33
212 -82 308 -180 134 -136 190 -270 190 -461 0 -285 -178 -532 -450 -625 -73
-24 -101 -28 -200 -29 -93 -1 -129 4 -190 22 -112 35 -195 86 -281 171 -132
133 -190 269 -191 452 -1 124 12 187 57 284 67 146 170 252 312 321 134 65
301 82 445 45z m-52 -1572 c287 -46 520 -293 546 -577 l7 -72 -662 0 -662 0 6
58 c18 162 77 283 195 403 70 71 100 94 170 127 135 65 260 84 400 61z"/>
</g>
</svg>
